<?xml version="1.0" encoding="utf-8"?>
<!-- Svg Vector Icons : http://www.onlinewebfonts.com/icon -->
<!DOCTYPE svg PUBLIC "-//W3C//DTD SVG 1.1//EN" "http://www.w3.org/Graphics/SVG/1.1/DTD/svg11.dtd">
<svg version="1.1" xmlns="http://www.w3.org/2000/svg" xmlns:xlink="http://www.w3.org/1999/xlink" x="0px" y="0px" viewBox="0 0 256 256" enable-background="new 0 0 256 256" xml:space="preserve">
<metadata> Svg Vector Icons : http://www.onlinewebfonts.com/icon </metadata>
<g><g><path fill="#000000" d="M128,10C62.8,10,10,62.8,10,128c0,65.2,52.8,118,118,118c65.2,0,118-52.8,118-118C246,62.8,193.2,10,128,10z M83.8,187c-8.1,0-14.8-6.6-14.8-14.8s6.6-14.8,14.8-14.8c8.2,0,14.8,6.6,14.8,14.8S91.9,187,83.8,187z M124.3,187c0-30.5-24.8-55.3-55.3-55.3v-22.1c42.7,0,77.4,34.7,77.4,77.4H124.3L124.3,187z M168.6,187c0-26.6-10.4-51.6-29.2-70.4C120.6,97.8,95.6,87.4,69,87.4V65.3c32.5,0,63.1,12.7,86,35.6c23,23,35.6,53.5,35.6,86H168.6L168.6,187z"/></g></g>
</svg>